# xmcd
# 
# Track frame offsets:
#     150
#     9600
#     23225
#     35070
#     47295
#     64085
#     74080
#     84130
#     96330
#     114390
#     131197
#     141562
#     156055
#     167427
#     179135
#     191395
#     203825
#     213895
# 
# Disc length: 3032
# 
# Revision: 3
# Processed by: cddbd v1.5.2PL0 Copyright (c) Steve Scherf et al.
# Submitted via: fre:ac v1.1beta1pre5
# 
DISCID=010bd612
DTITLE=Various Artist - The Many Sides Of Country [CD2]
DYEAR=1998
DGENRE=Country
TTITLE0=Browns Featuring Jim Edward Brown - This Land Is Your Land
TTITLE1=Eddy Arnold And The Needmore Creek Singers - Blowin' In The Wind
TTITLE2=Red Foley - On Top of Old Smoky
TTITLE3=Johnny Cash - Goodnight Irene
TTITLE4=Jordanaires - Michael, Row The Boat Ashore
TTITLE5=Eddy Arnold - Tom Dooley
TTITLE6=George Hamilton IV - You Are My Sunshine
TTITLE7=Browns - Shenandoah
TTITLE8=Waylon Jennings And Jessi Colter - Bridge Over Trouble Water
TTITLE9=Johnny Cash - (Ghost) Riders in the Sky
TTITLE10=Eddy Arnold - Don't Fence Me In
TTITLE11=Marty Robbins - Cool Water
TTITLE12=Jimmy Wakely - Red River Valley
TTITLE13=Jimmy C Newman - Git Along Little Dogies
TTITLE14=Eddy Arnold - Tumbling Tumbleweeds
TTITLE15=Ray Price - Don't Let The Stars Get In Your Eyes
TTITLE16=Bob Wills and The Texas Playboys featuring Leon Rausch - Deep In The Heart Of Texas
TTITLE17=Tennessee Ernie Ford - Mule Train
EXTD=
EXTT0=
EXTT1=
EXTT2=
EXTT3=
EXTT4=
EXTT5=
EXTT6=
EXTT7=
EXTT8=
EXTT9=
EXTT10=
EXTT11=
EXTT12=
EXTT13=
EXTT14=
EXTT15=
EXTT16=
EXTT17=
PLAYORDER=
